# xmcd
#
# Track frame offsets: 
#        150
#        15394
#        31166
#        49296
#        69689
#        90980
#        103274
#        119964
#        133314
#        147384
#        159438
#        178276
#        193333
#        203926
#        217797
#        235284
#        252340
#        266332
#        277058
#
# Disc length: 3948 seconds
#
# Revision: 2
# Processed by: cddbd v1.5.2PL0 Copyright (c) Steve Scherf et al.
# Submitted via: ExactAudioCopy v0.99pb4
#
DISCID=2a0f6a13
DTITLE=Various Artist - The Rough Guide To: Tex-Mex 
DYEAR=1999
DGENRE=Wold Music
TTITLE0=Flaco Jimenez - Mentiste Cuando Dijiste
TTITLE1=Tony de la Rosa - Atotonilco
TTITLE2=Los Pinkys - Flor de Dalia
TTITLE3=Santiago Jimenez Jr - El Gato Negro
TTITLE4=Mingo Saldivar Y Sus Tremendos Cuatro Espadas - Rueda De Fuego
TTITLE5=Roberto Pulido Y Los Clasicos - Cuanto Te Debo?
TTITLE6=Valerio Longoria - Ramona
TTITLE7=Las Hermanas Mendoza - Mis Pensamientos
TTITLE8=Narciso Martinez - Muchachos Alegres
TTITLE9=Conjunto Bernal - Voy Perdiendo
TTITLE10=Flaco Jimenez - Juarez
TTITLE11=Tony de la Rosa - Paloma Sin Nido
TTITLE12=Eddie "Lalo" Torres y su Conjunto - Arriba San Antonio
TTITLE13=Los Pinkys - El Parrandero
TTITLE14=Eva Ybarra y su Conjunto - Quiereme, Quiereme
TTITLE15=Jimmy Sturr - Hey Baby, Que Paso
TTITLE16=Los Dos Gilbertos - Dios Quiera Que Nunca
TTITLE17=Santiago Jimenez Jr - Alma de Tejas
TTITLE18=Lydia Mendoza - Delgadina
EXTD=
EXTT0=
EXTT1=
EXTT2=
EXTT3=
EXTT4=
EXTT5=
EXTT6=
EXTT7=
EXTT8=
EXTT9=
EXTT10=
EXTT11=
EXTT12=
EXTT13=
EXTT14=
EXTT15=
EXTT16=
EXTT17=
EXTT18=
PLAYORDER=
